<?xml version="1.0" encoding="UTF-8"?>
<svg id="Layer_1" data-name="Layer 1" xmlns="http://www.w3.org/2000/svg" viewBox="0 0 868.94 227.82">
  <defs>
    <style>
      .cls-1 {
        fill: #194ca1;
      }

      .cls-2 {
        fill: #fff7e3;
      }
    </style>
  </defs>
  <g>
    <path class="cls-1" d="M577.38,0l-85.76,57.27c-4.07.18-7.77-.95-11.95-.98-19.09-.11-35.9,7.45-48,19.43l-68.38-17.58L577.38,0h0Z"/>
    <polygon class="cls-1" points="577.38 0 452.81 183.04 459.15 103.51 577.38 0"/>
    <path class="cls-1" d="M475.2,72.25c-4.28,3.55-9.24,7.8-14.14,11.17h0c-.36.26-.71.5-1.08.74-3.34,2.15-7.9,3.71-9.08-1.59-.11-.47-.17-.93-.2-1.37-.36-5.95,5.52-10.91,10.93-12.2,4.12-.99,9.39-.27,12.76,2.39.21.17.6.62.81.87h0Z"/>
    <g>
      <path class="cls-1" d="M.02,157.22C.02,118.25,31.47,86.41,70.42,86.41c28.67,0,52.01,17.4,63.09,42.12l-25.32,7.32c-7.12-14.04-20.17-24.13-37.78-24.13-25.32,0-43.91,20.17-43.91,45.49s18.59,45.29,43.91,45.29c17.6,0,30.27-9.09,37.18-23.34l25.71,6.93c-10.88,24.53-34.02,41.73-62.89,41.73C31.44,227.82,0,196.17,0,157.22h.02Z"/>
      <path class="cls-1" d="M144.39,157.22c0-38.97,31.45-70.81,70.4-70.81,28.67,0,52.01,17.4,63.09,42.12l-25.32,7.32c-7.12-14.04-20.17-24.13-37.78-24.13-25.32,0-43.91,20.17-43.91,45.49s18.59,45.29,43.91,45.29c17.6,0,30.27-9.09,37.18-23.34l25.71,6.93c-10.88,24.53-34.02,41.73-62.89,41.73-38.97,0-70.4-31.65-70.4-70.6h.02Z"/>
      <path class="cls-1" d="M294.29,226.63V87.79h50.82c39.36,0,70.81,30.27,71.01,69.41.2,39.16-31.05,69.41-71.01,69.41h-50.82v.02ZM321.19,201.72h23.92c26.9,0,44.89-19.39,44.89-44.5s-18.2-44.5-44.89-44.5h-23.92v88.99h0Z"/>
    </g>
  </g>
  <g>
    <path class="cls-2" d="M523.83,188.3l2.37-11.75c8.63,9.87,19.61,15.12,31.48,15.12,10.74,0,21.87-4.49,23.61-13.87,1.5-7.99-4.37-12.74-22.12-17-19.37-4.75-28.49-11-25.98-23.86,3.13-15.87,21.23-24.62,37.61-24.62,15.12,0,24.62,6.12,29.36,10.62l-2.25,11.75c-7-7-17.75-12.11-29.24-12.11-10.49,0-22.74,4.75-24.62,14.37-1.88,9.24,9.62,11.99,23.86,15.37,21.37,5.24,26.36,14.25,24.24,25.23-3.25,16.74-20.87,24.62-37.24,24.36-13.24-.12-23.37-5-31.11-13.62h.02Z"/>
    <path class="cls-2" d="M606.06,165.42l10.11-51.98h11l-10.11,51.98c-3.37,17.49,7.75,26.12,19.99,26.12s26.73-8.63,30.12-26.12l10.11-51.98h10.86l-10.11,51.98c-4.49,23.37-23.86,36.49-43.11,36.49s-33.48-12.74-28.87-36.49h.01Z"/>
    <path class="cls-2" d="M686.15,200.9l17-87.46h11l-17,87.46h-11Z"/>
    <path class="cls-2" d="M739.25,200.9l15-77.21h-29.86l2-10.25h69.73l-2,10.25h-28.99l-15,77.21h-10.88Z"/>
    <path class="cls-2" d="M790.6,200.9l17-87.46h61.34l-2,10.11h-50.36l-5.62,28.61h45.35l-1.88,9.87h-45.35l-5.5,28.61h50.36l-2,10.25h-61.34Z"/>
  </g>
</svg>