<?xml version="1.0" encoding="UTF-8"?>
<svg id="Layer_1" data-name="Layer 1" xmlns="http://www.w3.org/2000/svg" viewBox="0 0 525 448.86">
  <defs>
    <style>
      .cls-1 {
        fill: #9bbe3c;
      }
    </style>
  </defs>
  <path class="cls-1" d="M525,0l-210.32,140.44c-9.99.44-19.05-2.32-29.3-2.4-46.8-.26-88.04,18.28-117.71,47.65L0,142.58,525,0h0Z"/>
  <polygon class="cls-1" points="525 0 219.53 448.86 235.08 253.87 525 0"/>
  <path class="cls-1" d="M274.44,177.18c-10.5,8.7-22.66,19.13-34.68,27.38h0c-.88.63-1.73,1.22-2.65,1.81-8.18,5.27-19.38,9.1-22.26-3.91-.26-1.14-.41-2.28-.48-3.35-.88-14.59,13.52-26.75,26.79-29.92,10.1-2.43,23.03-.66,31.29,5.86.52.41,1.47,1.51,1.99,2.14h0Z"/>
</svg>