<?xml version="1.0" encoding="UTF-8"?>
<svg id="Layer_1" data-name="Layer 1" xmlns="http://www.w3.org/2000/svg" viewBox="0 0 550.75 363.49">
  <defs>
    <style>
      .cls-1 {
        fill: #111112;
      }

      .cls-2 {
        fill: #231f20;
      }
    </style>
  </defs>
  <g>
    <path class="cls-1" d="M.02,347.82l2.73-13.52c9.92,11.36,22.55,17.39,36.21,17.39,12.36,0,25.15-5.17,27.15-15.95,1.73-9.19-5.03-14.66-25.44-19.55-22.28-5.46-32.77-12.65-29.88-27.45,3.59-18.25,24.42-28.31,43.26-28.31,17.39,0,28.31,7.03,33.77,12.22l-2.59,13.52c-8.05-8.05-20.41-13.93-33.63-13.93-12.06,0-26.15,5.46-28.31,16.52-2.16,10.63,11.06,13.79,27.45,17.68,24.58,6.03,30.31,16.38,27.88,29.02-3.73,19.25-24.01,28.31-42.83,28.02-15.23-.14-26.88-5.76-35.78-15.66h.02Z"/>
    <path class="cls-1" d="M94.57,321.52l11.63-59.78h12.65l-11.63,59.78c-3.87,20.12,8.92,30.04,22.99,30.04s30.75-9.92,34.64-30.04l11.63-59.78h12.5l-11.63,59.78c-5.17,26.88-27.45,41.96-49.59,41.96s-38.51-14.66-33.2-41.96h.02Z"/>
    <path class="cls-1" d="M186.69,362.32l19.55-100.59h12.65l-19.55,100.59h-12.65Z"/>
    <path class="cls-1" d="M247.77,362.32l17.25-88.8h-34.34l2.3-11.79h80.19l-2.3,11.79h-33.34l-17.25,88.8h-12.51Z"/>
    <path class="cls-1" d="M306.83,362.32l19.55-100.59h70.55l-2.3,11.63h-57.92l-6.46,32.91h52.16l-2.16,11.36h-52.16l-6.33,32.91h57.92l-2.3,11.79h-70.55Z"/>
  </g>
  <path class="cls-2" d="M550.75,0l-81.81,54.63c-3.88.17-7.41-.9-11.4-.93-18.2-.1-34.25,7.11-45.78,18.53l-65.22-16.77L550.75,0h0Z"/>
  <polygon class="cls-2" points="550.75 0 431.93 174.6 437.98 98.75 550.75 0"/>
  <path class="cls-2" d="M453.29,68.92c-4.09,3.38-8.82,7.44-13.49,10.65h0c-.34.24-.67.47-1.03.7-3.18,2.05-7.54,3.54-8.66-1.52-.1-.44-.16-.89-.19-1.3-.34-5.68,5.26-10.41,10.42-11.64,3.93-.95,8.96-.26,12.17,2.28.2.16.57.59.77.83h0Z"/>
  <g>
    <path class="cls-2" d="M.01,149.97C.01,112.8,30.02,82.42,67.17,82.42c27.35,0,49.61,16.6,60.18,40.18l-24.15,6.98c-6.79-13.39-19.24-23.02-36.04-23.02-24.15,0-41.89,19.24-41.89,43.39s17.73,43.2,41.89,43.2c16.79,0,28.87-8.67,35.46-22.26l24.53,6.61c-10.38,23.39-32.45,39.81-59.99,39.81C29.99,217.31,0,187.12,0,149.97h.01Z"/>
    <path class="cls-2" d="M137.73,149.97c0-37.17,30-67.54,67.16-67.54,27.35,0,49.61,16.6,60.18,40.18l-24.15,6.98c-6.79-13.39-19.24-23.02-36.04-23.02-24.15,0-41.89,19.24-41.89,43.39s17.73,43.2,41.89,43.2c16.79,0,28.87-8.67,35.46-22.26l24.53,6.61c-10.38,23.39-32.45,39.81-59.99,39.81-37.17,0-67.16-30.19-67.16-67.34h.01Z"/>
    <path class="cls-2" d="M280.71,216.19V83.76h48.48c37.54,0,67.54,28.87,67.73,66.21.19,37.36-29.62,66.21-67.73,66.21h-48.48ZM306.37,192.41h22.82c25.66,0,42.82-18.49,42.82-42.44s-17.36-42.44-42.82-42.44h-22.82v84.89Z"/>
  </g>
</svg>